<?xml version="1.0" standalone="no"?><!-- Generator: Gravit.io --><svg xmlns="http://www.w3.org/2000/svg" xmlns:xlink="http://www.w3.org/1999/xlink" style="isolation:isolate" viewBox="5 5.002 64 63.997" width="64px" height="63.997px"><path d=" M 34.245 36.075 C 35.256 36.073 36.072 35.256 36.073 34.247 C 36.086 29.247 36.118 15.668 36.118 15.39 C 36.117 9.654 31.468 5.005 25.731 5.003 C 20.011 5.002 15.367 9.631 15.345 15.348 C 9.626 15.369 5 20.01 5 25.734 C 5.001 31.469 9.651 36.119 15.387 36.121 C 15.668 36.12 29.247 36.087 34.245 36.075 Z  M 39.753 37.925 C 38.745 37.927 37.927 38.746 37.927 39.754 C 37.913 44.753 37.882 58.333 37.881 58.61 C 37.882 64.346 42.531 68.995 48.269 68.998 C 53.991 68.997 58.632 64.371 58.655 58.653 C 64.374 58.634 69.003 53.99 69 48.267 C 68.999 42.532 64.349 37.882 58.612 37.879 C 58.333 37.882 44.753 37.912 39.753 37.925 Z  M 48.267 5.002 C 42.531 5.001 37.883 9.651 37.877 15.389 C 37.875 15.669 37.908 29.247 37.921 34.245 C 37.925 35.254 38.741 36.071 39.75 36.072 C 44.75 36.087 58.332 36.119 58.608 36.12 C 64.343 36.12 68.995 31.468 68.998 25.733 C 68.998 20.014 64.369 15.369 58.651 15.347 C 58.629 9.63 53.99 5.002 48.267 5.002 Z  M 36.075 39.753 C 36.072 38.744 35.256 37.927 34.248 37.925 C 29.248 37.912 15.667 37.881 15.39 37.88 C 9.653 37.881 5.004 42.53 5.002 48.266 C 5.003 53.989 9.629 58.629 15.347 58.654 C 15.369 64.371 20.013 69.001 25.735 68.998 C 31.472 68.997 36.118 64.349 36.123 58.612 C 36.121 58.332 36.088 44.753 36.075 39.753 Z " fill-rule="evenodd" fill="rgb(204,27,185)"/></svg>