<svg width="38" height="38" viewBox="0 0 38 38" fill="none" xmlns="http://www.w3.org/2000/svg">
<g clip-path="url(#clip0)">
<path d="M0.795603 22.0035C2.81386 29.2214 7.79278 34.461 12.6325 34.461C13.0212 34.461 13.4096 34.4272 13.7879 34.3603C14.0025 34.3226 14.1901 34.1965 14.3063 34.0135C14.422 33.8293 14.4547 33.6055 14.3958 33.3964L13.3996 29.8328C13.3035 29.4887 12.9716 29.256 12.6267 29.2718L12.5475 29.2733C10.7527 29.2733 7.47249 26.5834 5.80029 20.6047C5.73415 20.3675 5.67148 20.1249 5.61111 19.8719C7.48825 20.8008 9.7276 21.0158 11.7555 20.4509C16.3303 19.1709 19.0103 14.4085 17.7314 9.83442C16.6948 6.1282 13.2854 3.53896 9.44037 3.53896C8.65714 3.53896 7.87506 3.64701 7.11567 3.85964C4.09887 4.70285 1.83068 7.2075 0.728701 10.9106C-0.266006 14.2516 -0.241016 18.2946 0.795603 22.0035Z" fill="#62D41C"/>
<path d="M32.5832 34.4604C32.9711 34.4604 33.3599 34.4273 33.7378 34.3604C33.952 34.3235 34.14 34.1966 34.2558 34.0136C34.3715 33.8294 34.4042 33.6056 34.3457 33.3965L33.3491 29.8329C33.253 29.4888 32.9273 29.2562 32.5763 29.2719L32.4978 29.2735C30.703 29.2735 27.4224 26.5835 25.7502 20.6048C25.6837 20.3661 25.621 20.1234 25.561 19.872C27.4389 20.8009 29.6775 21.0159 31.7054 20.451C36.2794 19.171 38.9602 14.4086 37.6805 9.83455C36.6439 6.12833 33.2345 3.53909 29.3895 3.53909C28.6063 3.53909 27.8242 3.64713 27.0644 3.85976C24.048 4.70297 21.7798 7.20762 20.6774 10.9108C19.6831 14.2517 19.7077 18.2951 20.7447 22.0044C22.7641 29.2215 27.7423 34.4604 32.5832 34.4604Z" fill="#62D41C"/>
</g>
<defs>
<clipPath id="clip0">
<rect width="38" height="38" fill="white" transform="translate(38 38) rotate(-180)"/>
</clipPath>
</defs>
</svg>
